<svg width="40" height="37" viewBox="0 0 40 37" fill="none" xmlns="http://www.w3.org/2000/svg">
<g clip-path="url(#clip0_16_24)" filter="url(#filter0_d_16_24)">
<path d="M20 17.4052C21.5752 17.4052 22.8522 16.1045 22.8522 14.5C22.8522 12.8955 21.5752 11.5948 20 11.5948C18.4248 11.5948 17.1478 12.8955 17.1478 14.5C17.1478 16.1045 18.4248 17.4052 20 17.4052Z" fill="#61DAFB"/>
<path d="M20 20.4521C28.4524 20.4521 35.3044 17.7873 35.3044 14.5C35.3044 11.2128 28.4524 8.54797 20 8.54797C11.5477 8.54797 4.69568 11.2128 4.69568 14.5C4.69568 17.7873 11.5477 20.4521 20 20.4521Z" stroke="#61DAFB"/>
<path d="M14.9394 17.4761C19.1656 24.932 24.8573 29.6439 27.6522 28.0003C30.4471 26.3567 29.2868 18.98 25.0606 11.524C20.8344 4.06801 15.1427 -0.643843 12.3478 0.999775C9.55295 2.64339 10.7132 10.0201 14.9394 17.4761Z" stroke="#61DAFB"/>
<path d="M14.9394 11.524C10.7132 18.98 9.55292 26.3567 12.3478 28.0003C15.1427 29.6439 20.8344 24.9321 25.0606 17.4761C29.2868 10.0201 30.4471 2.64342 27.6522 0.999798C24.8573 -0.643819 19.1656 4.06803 14.9394 11.524Z" stroke="#61DAFB"/>
</g>
<defs>
<filter id="filter0_d_16_24" x="0" y="0" width="40" height="37" filterUnits="userSpaceOnUse" color-interpolation-filters="sRGB">
<feFlood flood-opacity="0" result="BackgroundImageFix"/>
<feColorMatrix in="SourceAlpha" type="matrix" values="0 0 0 0 0 0 0 0 0 0 0 0 0 0 0 0 0 0 127 0" result="hardAlpha"/>
<feOffset dy="4"/>
<feGaussianBlur stdDeviation="2"/>
<feComposite in2="hardAlpha" operator="out"/>
<feColorMatrix type="matrix" values="0 0 0 0 0 0 0 0 0 0 0 0 0 0 0 0 0 0 0.25 0"/>
<feBlend mode="normal" in2="BackgroundImageFix" result="effect1_dropShadow_16_24"/>
<feBlend mode="normal" in="SourceGraphic" in2="effect1_dropShadow_16_24" result="shape"/>
</filter>
<clipPath id="clip0_16_24">
<rect width="32" height="29" fill="white" transform="translate(4)"/>
</clipPath>
</defs>
</svg>
