<svg width="39" height="40" viewBox="0 0 39 40" fill="none" xmlns="http://www.w3.org/2000/svg">
<path d="M19.0905 9.05997C12.792 9.26529 10.92 13.88 10.491 16.38C11.05 15.4533 12.8115 13.42 15.405 13.42C18.4275 13.42 20.7285 16.88 22.1325 17.96C23.8382 19.2721 27.2658 21.0046 31.7655 19.6C35.3534 18.48 37.0175 14.5733 37.3814 12.72C35.6459 15.14 33.0135 16.5935 29.757 14.88C27.5145 13.7 25.8375 8.84001 19.0905 9.05997Z" fill="#07B6D5"/>
<path d="M10.179 20.0399C3.88047 20.2453 2.00847 24.8599 1.57947 27.3599C2.13847 26.4333 3.89997 24.4 6.49346 24.4C9.51596 24.4 11.817 27.86 13.221 28.94C14.9267 30.2521 18.3543 31.9846 22.854 30.58C26.4419 29.46 28.106 25.5533 28.4699 23.6999C26.7344 26.1199 24.102 27.5735 20.8455 25.8599C18.603 24.6799 16.926 19.82 10.179 20.0399Z" fill="#07B6D5"/>
</svg>
