<svg width="19" height="19" viewBox="0 0 19 19" fill="none" xmlns="http://www.w3.org/2000/svg">
<g clip-path="url(#clip0_28_37)">
<path d="M13.7592 8.54208L12.0175 6.80042C11.7958 6.57875 11.7325 6.27 11.8196 5.99292C12.1125 5.10625 12.2708 4.15625 12.2708 3.16667C12.2708 2.73125 12.6271 2.375 13.0625 2.375H15.8333C16.2688 2.375 16.625 2.73125 16.625 3.16667C16.625 10.6004 10.6004 16.625 3.16667 16.625C2.73125 16.625 2.375 16.2688 2.375 15.8333V13.0704C2.375 12.635 2.73125 12.2788 3.16667 12.2788C4.14833 12.2788 5.10625 12.1204 5.99292 11.8275C6.27 11.7325 6.58667 11.8038 6.80042 12.0175L8.54208 13.7592C10.7825 12.6112 12.6192 10.7825 13.7592 8.54208Z" fill="#DFF4FD"/>
</g>
<defs>
<clipPath id="clip0_28_37">
<rect width="19" height="19" fill="white"/>
</clipPath>
</defs>
</svg>
