<svg width="33" height="34" viewBox="0 0 33 34" fill="none" xmlns="http://www.w3.org/2000/svg">
<g clip-path="url(#clip0_17_99)">
<mask id="mask0_17_99" style="mask-type:luminance" maskUnits="userSpaceOnUse" x="0" y="0" width="33" height="34">
<path d="M0 0.041748H32.9595V34H0V0.041748Z" fill="white"/>
</mask>
<g mask="url(#mask0_17_99)">
<path d="M32.3373 15.5091L17.9464 0.683255C17.7493 0.480016 17.5152 0.318791 17.2576 0.208792C17 0.0987925 16.7238 0.0421753 16.4449 0.0421753C16.1661 0.0421753 15.8899 0.0987925 15.6323 0.208792C15.3747 0.318791 15.1406 0.480016 14.9434 0.683255L11.9562 3.76247L15.7462 7.6673C16.1918 7.51139 16.6708 7.48705 17.1291 7.59703C17.5874 7.70702 18.0067 7.94693 18.3396 8.28965C18.6743 8.63485 18.9079 9.07014 19.0138 9.54573C19.1197 10.0213 19.0935 10.518 18.9382 10.979L22.5923 14.7426C23.0398 14.5825 23.5221 14.5555 23.9838 14.6648C24.4455 14.7741 24.868 15.0152 25.2029 15.3605C25.4374 15.6021 25.6234 15.889 25.7504 16.2047C25.8773 16.5204 25.9426 16.8587 25.9426 17.2004C25.9426 17.5421 25.8773 17.8805 25.7504 18.1962C25.6234 18.5119 25.4374 18.7987 25.2029 19.0403C24.7287 19.5283 24.0859 19.8025 23.4157 19.8025C22.7454 19.8025 22.1026 19.5283 21.6285 19.0403C21.2762 18.6768 21.0362 18.214 20.9387 17.7103C20.8412 17.2066 20.8905 16.6844 21.0804 16.2094L17.6728 12.6997V21.9377C18.0324 22.1208 18.3446 22.3895 18.5834 22.7216C18.8222 23.0537 18.9808 23.4396 19.046 23.8474C19.1112 24.2552 19.0812 24.6732 18.9584 25.0667C18.8356 25.4602 18.6236 25.8178 18.3399 26.1101C18.1054 26.3517 17.827 26.5434 17.5206 26.6742C17.2142 26.805 16.8858 26.8723 16.5542 26.8723C16.2225 26.8723 15.8941 26.805 15.5877 26.6742C15.2813 26.5434 15.0029 26.3517 14.7684 26.1101C14.5338 25.8685 14.3477 25.5816 14.2208 25.2659C14.0938 24.9502 14.0284 24.6118 14.0284 24.27C14.0284 23.9283 14.0938 23.5899 14.2208 23.2742C14.3477 22.9584 14.5338 22.6716 14.7684 22.43C15.0047 22.186 15.2856 21.9927 15.5948 21.8612V12.5382C15.2869 12.4075 15.007 12.2154 14.7713 11.9729C14.5356 11.7304 14.3487 11.4424 14.2214 11.1253C14.0941 10.8082 14.0288 10.4683 14.0294 10.1251C14.0299 9.78194 14.0963 9.44227 14.2246 9.12561L10.4877 5.27474L0.619297 15.4396C0.221632 15.8502 -0.00170898 16.4065 -0.00170898 16.9864C-0.00170898 17.5664 0.221632 18.1227 0.619297 18.5333L15.0109 33.361C15.4093 33.7706 15.9492 34.0006 16.512 34.0006C17.0749 34.0006 17.6147 33.7706 18.0132 33.361L32.3373 18.6027C32.735 18.1922 32.9583 17.6359 32.9583 17.0559C32.9583 16.4759 32.735 15.9196 32.3373 15.5091Z" fill="#F03C2E"/>
</g>
</g>
<defs>
<clipPath id="clip0_17_99">
<rect width="33" height="34" fill="white"/>
</clipPath>
</defs>
</svg>
