<svg width="50" height="20" viewBox="0 0 50 20" fill="none" xmlns="http://www.w3.org/2000/svg">
<g clip-path="url(#clip0_27_11)">
<path d="M0 0H50V17.1429H25V20H13.8889V17.1429H0V0ZM2.77778 14.2857H8.33333V5.71429H11.1111V14.2857H13.8889V2.85714H2.77778V14.2857ZM16.6667 2.85714V17.1429H22.2222V14.2857H27.7778V2.85714H16.6667ZM22.2222 5.71429H25V11.4286H22.2222V5.71429ZM30.5556 2.85714V14.2857H36.1111V5.71429H38.8889V14.2857H41.6667V5.71429H44.4444V14.2857H47.2222V2.85714H30.5556Z" fill="#CB3837"/>
<path d="M2.77783 14.2857H8.33339V5.71426H11.1112V14.2857H13.8889V2.85712H2.77783V14.2857Z" fill="white"/>
<path d="M16.6666 2.85712V17.1428H22.2222V14.2857H27.7777V2.85712H16.6666ZM25 11.4285H22.2222V5.71426H25V11.4285Z" fill="white"/>
<path d="M30.5555 2.85712V14.2857H36.1111V5.71426H38.8889V14.2857H41.6667V5.71426H44.4444V14.2857H47.2222V2.85712H30.5555Z" fill="white"/>
</g>
<defs>
<clipPath id="clip0_27_11">
<rect width="50" height="20" fill="white"/>
</clipPath>
</defs>
</svg>
