<svg width="19" height="30" viewBox="0 0 19 30" fill="none" xmlns="http://www.w3.org/2000/svg">
<g clip-path="url(#clip0_17_63)">
<path d="M4.75101 30C7.37249 30 9.50006 27.76 9.50006 25V20H4.75101C2.12953 20 0.00195312 22.24 0.00195312 25C0.00195312 27.76 2.12953 30 4.75101 30Z" fill="#0ACF83"/>
<path d="M0.00195312 15C0.00195312 12.24 2.12953 10 4.75101 10H9.50006V20H4.75101C2.12953 20 0.00195312 17.76 0.00195312 15Z" fill="#A259FF"/>
<path d="M0.00476074 5C0.00476074 2.24 2.13234 0 4.75381 0H9.50287V10H4.75381C2.13234 10 0.00476074 7.76001 0.00476074 5Z" fill="#F24E1E"/>
<path d="M9.5 0H14.2491C16.8705 0 18.9981 2.24 18.9981 5C18.9981 7.76001 16.8705 10 14.2491 10H9.5V0Z" fill="#FF7262"/>
<path d="M18.9981 15C18.9981 17.76 16.8705 20 14.2491 20C11.6276 20 9.5 17.76 9.5 15C9.5 12.24 11.6276 10 14.2491 10C16.8705 10 18.9981 12.24 18.9981 15Z" fill="#1ABCFE"/>
</g>
<defs>
<clipPath id="clip0_17_63">
<rect width="19" height="30" fill="white"/>
</clipPath>
</defs>
</svg>
