<svg width="33" height="33" viewBox="0 0 33 33" fill="none" xmlns="http://www.w3.org/2000/svg">
<g clip-path="url(#clip0_17_73)">
<g filter="url(#filter0_d_17_73)">
<path d="M16.5 30.9375C24.4736 30.9375 30.9375 24.4736 30.9375 16.5C30.9375 8.52639 24.4736 2.0625 16.5 2.0625C8.52639 2.0625 2.0625 8.52639 2.0625 16.5C2.0625 24.4736 8.52639 30.9375 16.5 30.9375Z" fill="black"/>
</g>
<path d="M16.5 30.9375C24.4736 30.9375 30.9375 24.4736 30.9375 16.5C30.9375 8.52639 24.4736 2.0625 16.5 2.0625C8.52639 2.0625 2.0625 8.52639 2.0625 16.5C2.0625 24.4736 8.52639 30.9375 16.5 30.9375Z" stroke="#BABABA" stroke-opacity="0.5" stroke-width="2"/>
<path d="M16.5 30.9375C24.4736 30.9375 30.9375 24.4736 30.9375 16.5C30.9375 8.52639 24.4736 2.0625 16.5 2.0625C8.52639 2.0625 2.0625 8.52639 2.0625 16.5C2.0625 24.4736 8.52639 30.9375 16.5 30.9375Z" fill="url(#paint0_linear_17_73)"/>
<g filter="url(#filter1_d_17_73)">
<path d="M3.09375 16.5088C3.09375 22.4449 6.93129 27.4586 12.2603 29.2362C12.9306 29.3538 13.182 28.9513 13.182 28.5994C13.182 28.2805 13.1652 27.2242 13.1652 26.1007C9.79687 26.7207 8.92547 25.2785 8.65734 24.5242C8.50652 24.1385 7.85297 22.9479 7.2832 22.6292C6.81398 22.3776 6.14367 21.7573 7.26645 21.7406C8.32219 21.7238 9.07629 22.713 9.32766 23.1155C10.5342 25.1445 12.4614 24.5747 13.2322 24.2223C13.3495 23.3503 13.7014 22.763 14.0869 22.4279C11.104 22.0927 7.98703 20.9357 7.98703 15.8047C7.98703 14.3455 8.50652 13.1381 9.36117 12.1992C9.22711 11.864 8.75789 10.4888 9.49523 8.64394C9.49523 8.64394 10.618 8.29202 13.182 10.0191C14.2545 9.71747 15.394 9.56639 16.5335 9.56639C17.673 9.56639 18.8126 9.71747 19.8851 10.0191C22.449 8.27527 23.5718 8.6442 23.5718 8.6442C24.3091 10.4886 23.8399 11.8635 23.7059 12.1989C24.5605 13.1379 25.08 14.3284 25.08 15.8042C25.08 20.9522 21.9463 22.0922 18.9634 22.4279C19.4494 22.8471 19.8683 23.652 19.8683 24.9096C19.8683 26.704 19.8516 28.1459 19.8516 28.5989C19.8516 28.9508 20.1029 29.3697 20.7732 29.2357C26.0687 27.4588 29.9062 22.4284 29.9062 16.509C29.9062 9.09666 23.907 3.09375 16.5 3.09375C9.09305 3.09375 3.09375 9.09691 3.09375 16.5088Z" fill="black"/>
</g>
<path d="M3.09375 16.5088C3.09375 22.4449 6.93129 27.4586 12.2603 29.2362C12.9306 29.3538 13.182 28.9513 13.182 28.5994C13.182 28.2805 13.1652 27.2242 13.1652 26.1007C9.79687 26.7207 8.92547 25.2785 8.65734 24.5242C8.50652 24.1385 7.85297 22.9479 7.2832 22.6292C6.81398 22.3776 6.14367 21.7573 7.26645 21.7406C8.32219 21.7238 9.07629 22.713 9.32766 23.1155C10.5342 25.1445 12.4614 24.5747 13.2322 24.2223C13.3495 23.3503 13.7014 22.763 14.0869 22.4279C11.104 22.0927 7.98703 20.9357 7.98703 15.8047C7.98703 14.3455 8.50652 13.1381 9.36117 12.1992C9.22711 11.864 8.75789 10.4888 9.49523 8.64394C9.49523 8.64394 10.618 8.29202 13.182 10.0191C14.2545 9.71747 15.394 9.56639 16.5335 9.56639C17.673 9.56639 18.8126 9.71747 19.8851 10.0191C22.449 8.27527 23.5718 8.6442 23.5718 8.6442C24.3091 10.4886 23.8399 11.8635 23.7059 12.1989C24.5605 13.1379 25.08 14.3284 25.08 15.8042C25.08 20.9522 21.9463 22.0922 18.9634 22.4279C19.4494 22.8471 19.8683 23.652 19.8683 24.9096C19.8683 26.704 19.8516 28.1459 19.8516 28.5989C19.8516 28.9508 20.1029 29.3697 20.7732 29.2357C26.0687 27.4588 29.9062 22.4284 29.9062 16.509C29.9062 9.09666 23.907 3.09375 16.5 3.09375C9.09305 3.09375 3.09375 9.09691 3.09375 16.5088Z" fill="url(#paint1_linear_17_73)"/>
<g filter="url(#filter2_i_17_73)">
<path d="M3.09375 16.5088C3.09375 22.4449 6.93129 27.4586 12.2603 29.2362C12.9306 29.3538 13.182 28.9513 13.182 28.5994C13.182 28.2805 13.1652 27.2242 13.1652 26.1007C9.79687 26.7207 8.92547 25.2785 8.65734 24.5242C8.50652 24.1385 7.85297 22.9479 7.2832 22.6292C6.81398 22.3776 6.14367 21.7573 7.26645 21.7406C8.32219 21.7238 9.07629 22.713 9.32766 23.1155C10.5342 25.1445 12.4614 24.5747 13.2322 24.2223C13.3495 23.3503 13.7014 22.763 14.0869 22.4279C11.104 22.0927 7.98703 20.9357 7.98703 15.8047C7.98703 14.3455 8.50652 13.1381 9.36117 12.1992C9.22711 11.864 8.75789 10.4888 9.49523 8.64394C9.49523 8.64394 10.618 8.29202 13.182 10.0191C14.2545 9.71747 15.394 9.56639 16.5335 9.56639C17.673 9.56639 18.8126 9.71747 19.8851 10.0191C22.449 8.27527 23.5718 8.6442 23.5718 8.6442C24.3091 10.4886 23.8399 11.8635 23.7059 12.1989C24.5605 13.1379 25.08 14.3284 25.08 15.8042C25.08 20.9522 21.9463 22.0922 18.9634 22.4279C19.4494 22.8471 19.8683 23.652 19.8683 24.9096C19.8683 26.704 19.8516 28.1459 19.8516 28.5989C19.8516 28.9508 20.1029 29.3697 20.7732 29.2357C26.0687 27.4588 29.9062 22.4284 29.9062 16.509C29.9062 9.09666 23.907 3.09375 16.5 3.09375C9.09305 3.09375 3.09375 9.09691 3.09375 16.5088Z" fill="black"/>
</g>
</g>
<defs>
<filter id="filter0_d_17_73" x="-1.9375" y="0.0625" width="36.875" height="36.875" filterUnits="userSpaceOnUse" color-interpolation-filters="sRGB">
<feFlood flood-opacity="0" result="BackgroundImageFix"/>
<feColorMatrix in="SourceAlpha" type="matrix" values="0 0 0 0 0 0 0 0 0 0 0 0 0 0 0 0 0 0 127 0" result="hardAlpha"/>
<feOffset dy="2"/>
<feGaussianBlur stdDeviation="2"/>
<feComposite in2="hardAlpha" operator="out"/>
<feColorMatrix type="matrix" values="0 0 0 0 0 0 0 0 0 0 0 0 0 0 0 0 0 0 0.240942 0"/>
<feBlend mode="normal" in2="BackgroundImageFix" result="effect1_dropShadow_17_73"/>
<feBlend mode="normal" in="SourceGraphic" in2="effect1_dropShadow_17_73" result="shape"/>
</filter>
<filter id="filter1_d_17_73" x="3.09375" y="3.09375" width="26.8125" height="27.1675" filterUnits="userSpaceOnUse" color-interpolation-filters="sRGB">
<feFlood flood-opacity="0" result="BackgroundImageFix"/>
<feColorMatrix in="SourceAlpha" type="matrix" values="0 0 0 0 0 0 0 0 0 0 0 0 0 0 0 0 0 0 127 0" result="hardAlpha"/>
<feOffset dy="1"/>
<feColorMatrix type="matrix" values="0 0 0 0 1 0 0 0 0 1 0 0 0 0 1 0 0 0 0.529297 0"/>
<feBlend mode="normal" in2="BackgroundImageFix" result="effect1_dropShadow_17_73"/>
<feBlend mode="normal" in="SourceGraphic" in2="effect1_dropShadow_17_73" result="shape"/>
</filter>
<filter id="filter2_i_17_73" x="3.09375" y="3.09375" width="26.8125" height="26.1675" filterUnits="userSpaceOnUse" color-interpolation-filters="sRGB">
<feFlood flood-opacity="0" result="BackgroundImageFix"/>
<feBlend mode="normal" in="SourceGraphic" in2="BackgroundImageFix" result="shape"/>
<feColorMatrix in="SourceAlpha" type="matrix" values="0 0 0 0 0 0 0 0 0 0 0 0 0 0 0 0 0 0 127 0" result="hardAlpha"/>
<feOffset/>
<feGaussianBlur stdDeviation="1"/>
<feComposite in2="hardAlpha" operator="arithmetic" k2="-1" k3="1"/>
<feColorMatrix type="matrix" values="0 0 0 0 0.258824 0 0 0 0 0.137255 0 0 0 0 0.431373 0 0 0 0.70355 0"/>
<feBlend mode="normal" in2="shape" result="effect1_innerShadow_17_73"/>
</filter>
<linearGradient id="paint0_linear_17_73" x1="1445.81" y1="2.0625" x2="1445.81" y2="2889.56" gradientUnits="userSpaceOnUse">
<stop stop-color="#FEFEFE"/>
<stop offset="1" stop-color="#E0E0E0"/>
</linearGradient>
<linearGradient id="paint1_linear_17_73" x1="1343.72" y1="2619.85" x2="1343.72" y2="3.09375" gradientUnits="userSpaceOnUse">
<stop stop-color="#492779"/>
<stop offset="1" stop-color="#892793"/>
</linearGradient>
<clipPath id="clip0_17_73">
<rect width="33" height="33" fill="white"/>
</clipPath>
</defs>
</svg>
