<svg width="13" height="13" viewBox="0 0 13 13" fill="none" xmlns="http://www.w3.org/2000/svg">
<g clip-path="url(#clip0_22_194)">
<g filter="url(#filter0_d_22_194)">
<path d="M6.5 12.1875C9.64112 12.1875 12.1875 9.64112 12.1875 6.5C12.1875 3.35888 9.64112 0.8125 6.5 0.8125C3.35888 0.8125 0.8125 3.35888 0.8125 6.5C0.8125 9.64112 3.35888 12.1875 6.5 12.1875Z" fill="black"/>
</g>
<path d="M6.5 12.1875C9.64112 12.1875 12.1875 9.64112 12.1875 6.5C12.1875 3.35888 9.64112 0.8125 6.5 0.8125C3.35888 0.8125 0.8125 3.35888 0.8125 6.5C0.8125 9.64112 3.35888 12.1875 6.5 12.1875Z" stroke="#BABABA" stroke-opacity="0.5" stroke-width="2"/>
<path d="M6.5 12.1875C9.64112 12.1875 12.1875 9.64112 12.1875 6.5C12.1875 3.35888 9.64112 0.8125 6.5 0.8125C3.35888 0.8125 0.8125 3.35888 0.8125 6.5C0.8125 9.64112 3.35888 12.1875 6.5 12.1875Z" fill="url(#paint0_linear_22_194)"/>
<g filter="url(#filter1_d_22_194)">
<path d="M1.21875 6.50345C1.21875 8.84193 2.73051 10.817 4.8298 11.5173C5.09387 11.5636 5.19289 11.4051 5.19289 11.2664C5.19289 11.1408 5.18629 10.7247 5.18629 10.2821C3.85938 10.5263 3.51609 9.95821 3.41047 9.66103C3.35105 9.5091 3.09359 9.04008 2.86914 8.91455C2.6843 8.81542 2.42023 8.57106 2.86254 8.56446C3.27844 8.55786 3.57551 8.94756 3.67453 9.1061C4.14984 9.90539 4.90902 9.68094 5.2127 9.5421C5.25891 9.19862 5.39754 8.96726 5.54938 8.83523C4.3743 8.7032 3.14641 8.24739 3.14641 6.22609C3.14641 5.65124 3.35105 5.17563 3.68773 4.80574C3.63492 4.6737 3.45008 4.13197 3.74055 3.40519C3.74055 3.40519 4.18285 3.26656 5.19289 3.94692C5.61539 3.82809 6.0643 3.76858 6.5132 3.76858C6.96211 3.76858 7.41102 3.82809 7.83352 3.94692C8.84355 3.25995 9.28586 3.40529 9.28586 3.40529C9.57633 4.13187 9.39148 4.6735 9.33867 4.80563C9.67535 5.17552 9.88 5.64454 9.88 6.22588C9.88 8.25388 8.64551 8.70299 7.47043 8.83523C7.66188 9.00037 7.82691 9.31745 7.82691 9.81287C7.82691 10.5197 7.82031 11.0878 7.82031 11.2662C7.82031 11.4049 7.91934 11.5699 8.1834 11.5171C10.2695 10.8171 11.7812 8.83543 11.7812 6.50356C11.7812 3.58353 9.41789 1.21875 6.5 1.21875C3.58211 1.21875 1.21875 3.58363 1.21875 6.50345Z" fill="black"/>
</g>
<path d="M1.21875 6.50345C1.21875 8.84193 2.73051 10.817 4.8298 11.5173C5.09387 11.5636 5.19289 11.4051 5.19289 11.2664C5.19289 11.1408 5.18629 10.7247 5.18629 10.2821C3.85938 10.5263 3.51609 9.95821 3.41047 9.66103C3.35105 9.5091 3.09359 9.04008 2.86914 8.91455C2.6843 8.81542 2.42023 8.57106 2.86254 8.56446C3.27844 8.55786 3.57551 8.94756 3.67453 9.1061C4.14984 9.90539 4.90902 9.68094 5.2127 9.5421C5.25891 9.19862 5.39754 8.96726 5.54938 8.83523C4.3743 8.7032 3.14641 8.24739 3.14641 6.22609C3.14641 5.65124 3.35105 5.17563 3.68773 4.80574C3.63492 4.6737 3.45008 4.13197 3.74055 3.40519C3.74055 3.40519 4.18285 3.26656 5.19289 3.94692C5.61539 3.82809 6.0643 3.76858 6.5132 3.76858C6.96211 3.76858 7.41102 3.82809 7.83352 3.94692C8.84355 3.25995 9.28586 3.40529 9.28586 3.40529C9.57633 4.13187 9.39148 4.6735 9.33867 4.80563C9.67535 5.17552 9.88 5.64454 9.88 6.22588C9.88 8.25388 8.64551 8.70299 7.47043 8.83523C7.66188 9.00037 7.82691 9.31745 7.82691 9.81287C7.82691 10.5197 7.82031 11.0878 7.82031 11.2662C7.82031 11.4049 7.91934 11.5699 8.1834 11.5171C10.2695 10.8171 11.7812 8.83543 11.7812 6.50356C11.7812 3.58353 9.41789 1.21875 6.5 1.21875C3.58211 1.21875 1.21875 3.58363 1.21875 6.50345Z" fill="url(#paint1_linear_22_194)"/>
<g filter="url(#filter2_i_22_194)">
<path d="M1.21875 6.50345C1.21875 8.84193 2.73051 10.817 4.8298 11.5173C5.09387 11.5636 5.19289 11.4051 5.19289 11.2664C5.19289 11.1408 5.18629 10.7247 5.18629 10.2821C3.85938 10.5263 3.51609 9.95821 3.41047 9.66103C3.35105 9.5091 3.09359 9.04008 2.86914 8.91455C2.6843 8.81542 2.42023 8.57106 2.86254 8.56446C3.27844 8.55786 3.57551 8.94756 3.67453 9.1061C4.14984 9.90539 4.90902 9.68094 5.2127 9.5421C5.25891 9.19862 5.39754 8.96726 5.54938 8.83523C4.3743 8.7032 3.14641 8.24739 3.14641 6.22609C3.14641 5.65124 3.35105 5.17563 3.68773 4.80574C3.63492 4.6737 3.45008 4.13197 3.74055 3.40519C3.74055 3.40519 4.18285 3.26656 5.19289 3.94692C5.61539 3.82809 6.0643 3.76858 6.5132 3.76858C6.96211 3.76858 7.41102 3.82809 7.83352 3.94692C8.84355 3.25995 9.28586 3.40529 9.28586 3.40529C9.57633 4.13187 9.39148 4.6735 9.33867 4.80563C9.67535 5.17552 9.88 5.64454 9.88 6.22588C9.88 8.25388 8.64551 8.70299 7.47043 8.83523C7.66188 9.00037 7.82691 9.31745 7.82691 9.81287C7.82691 10.5197 7.82031 11.0878 7.82031 11.2662C7.82031 11.4049 7.91934 11.5699 8.1834 11.5171C10.2695 10.8171 11.7812 8.83543 11.7812 6.50356C11.7812 3.58353 9.41789 1.21875 6.5 1.21875C3.58211 1.21875 1.21875 3.58363 1.21875 6.50345Z" fill="black"/>
</g>
</g>
<defs>
<filter id="filter0_d_22_194" x="-3.1875" y="-1.1875" width="19.375" height="19.375" filterUnits="userSpaceOnUse" color-interpolation-filters="sRGB">
<feFlood flood-opacity="0" result="BackgroundImageFix"/>
<feColorMatrix in="SourceAlpha" type="matrix" values="0 0 0 0 0 0 0 0 0 0 0 0 0 0 0 0 0 0 127 0" result="hardAlpha"/>
<feOffset dy="2"/>
<feGaussianBlur stdDeviation="2"/>
<feComposite in2="hardAlpha" operator="out"/>
<feColorMatrix type="matrix" values="0 0 0 0 0 0 0 0 0 0 0 0 0 0 0 0 0 0 0.240942 0"/>
<feBlend mode="normal" in2="BackgroundImageFix" result="effect1_dropShadow_22_194"/>
<feBlend mode="normal" in="SourceGraphic" in2="effect1_dropShadow_22_194" result="shape"/>
</filter>
<filter id="filter1_d_22_194" x="1.21875" y="1.21875" width="10.5625" height="11.3085" filterUnits="userSpaceOnUse" color-interpolation-filters="sRGB">
<feFlood flood-opacity="0" result="BackgroundImageFix"/>
<feColorMatrix in="SourceAlpha" type="matrix" values="0 0 0 0 0 0 0 0 0 0 0 0 0 0 0 0 0 0 127 0" result="hardAlpha"/>
<feOffset dy="1"/>
<feColorMatrix type="matrix" values="0 0 0 0 1 0 0 0 0 1 0 0 0 0 1 0 0 0 0.529297 0"/>
<feBlend mode="normal" in2="BackgroundImageFix" result="effect1_dropShadow_22_194"/>
<feBlend mode="normal" in="SourceGraphic" in2="effect1_dropShadow_22_194" result="shape"/>
</filter>
<filter id="filter2_i_22_194" x="1.21875" y="1.21875" width="10.5625" height="10.3085" filterUnits="userSpaceOnUse" color-interpolation-filters="sRGB">
<feFlood flood-opacity="0" result="BackgroundImageFix"/>
<feBlend mode="normal" in="SourceGraphic" in2="BackgroundImageFix" result="shape"/>
<feColorMatrix in="SourceAlpha" type="matrix" values="0 0 0 0 0 0 0 0 0 0 0 0 0 0 0 0 0 0 127 0" result="hardAlpha"/>
<feOffset/>
<feGaussianBlur stdDeviation="1"/>
<feComposite in2="hardAlpha" operator="arithmetic" k2="-1" k3="1"/>
<feColorMatrix type="matrix" values="0 0 0 0 0.258824 0 0 0 0 0.137255 0 0 0 0 0.431373 0 0 0 0.70355 0"/>
<feBlend mode="normal" in2="shape" result="effect1_innerShadow_22_194"/>
</filter>
<linearGradient id="paint0_linear_22_194" x1="569.563" y1="0.8125" x2="569.563" y2="1138.31" gradientUnits="userSpaceOnUse">
<stop stop-color="#FEFEFE"/>
<stop offset="1" stop-color="#E0E0E0"/>
</linearGradient>
<linearGradient id="paint1_linear_22_194" x1="529.344" y1="1032.06" x2="529.344" y2="1.21875" gradientUnits="userSpaceOnUse">
<stop stop-color="#492779"/>
<stop offset="1" stop-color="#892793"/>
</linearGradient>
<clipPath id="clip0_22_194">
<rect width="13" height="13" fill="white"/>
</clipPath>
</defs>
</svg>
